<?xml version="1.0" encoding="UTF-8"?>
<svg fill="#ffffff" width="1200pt" height="1200pt" version="1.1" viewBox="-12.2449 -12.2449 1224.49 1224.49" xmlns="http://www.w3.org/2000/svg">
 <path d="m891.71 352.96c-66.457-44.305-12.66-151.91-37.98-136.08-25.32 15.828-104.44 136.08-6.3242 202.54 98.102 66.457 148.74 167.72 126.59 227.68-22.152 59.953-305.51 73.078-305.51 73.078s0.35938 0.58984 0.97266 1.6211c80.699 16.246 171.89 117.52 200.03 219.62 4.2852 15.527 5.8906 29.867 5.6523 43.285 4.1875-0.91016 7.1992-4.5586 8.6992-11.594 16.633-77.844 210.42-126.47 229.4-278.38 18.984-151.9-155.07-297.47-221.53-341.77z"/>
 <path d="m226.01 647.09c-22.152-59.953 28.477-161.22 126.59-227.68 98.102-66.457 18.984-186.71-6.3242-202.54-25.32-15.828 28.477 91.777-37.98 136.08-66.457 44.305-240.52 189.88-221.53 341.77 18.984 151.91 212.79 200.52 229.4 278.38 1.5 7.0312 4.5 10.68 8.6992 11.594-0.23828-13.414 1.3672-27.758 5.6523-43.285 28.141-102.11 119.32-203.36 200.03-219.62 0.625-1.0312 0.97266-1.6211 0.97266-1.6211 0 0.003907-283.36-13.125-305.51-73.074z"/>
</svg>
