<?xml version="1.0" encoding="UTF-8"?>
<svg fill="#ffffff" width="1200pt" height="1200pt" version="1.1" viewBox="0 0 1200 1200" xmlns="http://www.w3.org/2000/svg">
 <path d="m901.31 293.58c15.938 24.469 42.375 89.953 64.594 264.89 1.7812 14.203 3.3281 27.938 4.8281 42.141l15.516 149.53c1.3125 12.562 1.9688 21.703 2.5781 34.359l4.9688 101.39c0.75 15.516 1.125 27.75 1.1719 43.219l0.32812 103.17v19.875c0 5.1562-4.2188 9.375-9.375 9.375h-94.078c-3.6094 0-6.75-2.0625-8.2969-5.0156-1.3594-2.1094-5.25-8.3438-10.078-17.906 0.14062-8.8125 0.28125-17.766 0.46875-26.484 0.5625-30.469 1.0312-57.656 0.1875-64.688-1.4062-11.766-1.3125-19.031-1.125-29.578 0.046875-1.875 0.046875-3.8906 0.09375-6.2344l3.2812-288.56c0.09375-7.5 0.28125-14.016 0.60938-20.719 0.28125-6.0938 0.75-12.656 1.4531-20.719l11.953-141.71c0-0.14062 0.046875-0.23437 0.046875-0.375l-9.3281-0.70312 9.3281 0.70312 10.969-145.97z"/>
 <path d="m631.64 1020.9v-647.53h-63.281v647.53z" fill-rule="evenodd"/>
 <path d="m492.75 222.34c1.3594-1.3594 2.8594-2.9062 4.5938-4.6875 0.28125-0.32813 94.172-114.05 209.06 2.8125 0.375 0.375 0.70312 0.70312 1.0312 1.0312-4.7812 21.516-10.828 45.375-17.859 66.281-8.6719 25.781-21.188 52.688-39.188 76.312v656.76c68.203-0.1875 136.4-0.42188 204.74-0.75l0.14062-8.2031c0.51562-29.625 1.0312-56.016 0.28125-62.203-1.5-12.609-1.4062-20.531-1.2188-32.016l0.09375-6.1406 3.2812-288.56c0.09375-8.1094 0.28125-14.906 0.60938-21.469 0.32812-7.1719 0.79688-13.875 1.4531-21.375l11.953-141.71v-0.28125l12.094-161.26c-3.375-1.7344-6.8906-3.1875-10.266-4.875-50.625-24.562-123.79-49.922-130.69-52.312-15.703-12.656-21.844-25.547-39.047-39.656-89.766-73.547-166.74-33.188-204.1-3.2344-18.844 15.094-30.75 35.109-42.562 42.891-6.8906 2.3906-80.016 27.75-130.69 52.312-3.4219 1.6406-6.9375 3.1406-10.266 4.875l12.094 161.26v0.28125l11.953 141.71c0.60938 7.5 1.0781 14.203 1.4531 21.375 0.32812 6.5625 0.51562 13.312 0.60938 21.469l3.2812 288.56 0.09375 6.1406c0.1875 11.484 0.28125 19.406-1.2188 32.016-0.75 6.1875-0.28125 32.578 0.28125 62.203l0.14062 8.2031c68.344 0.32812 136.55 0.5625 204.74 0.75v-656.76c-18-23.625-30.516-50.531-39.188-76.312-6.9375-20.625-12.938-44.109-17.672-65.391z" fill-rule="evenodd"/>
 <path d="m298.69 293.58c-15.938 24.469-42.375 89.953-64.594 264.89-1.7812 14.203-3.3281 27.938-4.8281 42.141l-15.516 149.53c-1.3125 12.562-1.9688 21.703-2.5781 34.359l-4.9688 101.39c-0.75 15.516-1.125 27.75-1.1719 43.219l-0.32812 103.17v19.875c0 5.1562 4.2188 9.375 9.375 9.375h94.078c3.6094 0 6.75-2.0625 8.2969-5.0156 1.3594-2.1094 5.25-8.3438 10.078-17.906-0.14062-8.8125-0.28125-17.766-0.46875-26.484-0.5625-30.469-1.0312-57.656-0.1875-64.688 1.4062-11.766 1.3125-19.031 1.125-29.578-0.046875-1.875-0.046875-3.8906-0.09375-6.2344l-3.2812-288.56c-0.09375-7.5-0.28125-14.016-0.60938-20.719-0.28125-6.0938-0.75-12.656-1.4531-20.719l-11.953-141.71c0-0.14062-0.046875-0.23437-0.046875-0.375l9.3281-0.70312-9.3281 0.70312-10.969-145.97z"/>
</svg>
