<?xml version="1.0" encoding="UTF-8"?>
<svg fill="#ffffff" width="1200pt" height="1200pt" version="1.1" viewBox="0 0 1200 1200" xmlns="http://www.w3.org/2000/svg">
 <path d="m587.11 1008.1c-154.78-12.188-304.6-24-446.53-9.6094l-11.25 139.74h214.64l35.156-53.859c2.4844-3.8438 6.5156-6.6094 11.391-7.4062 119.34-18.938 212.11 80.766 509.76 42.047 77.484-10.078 142.08-26.578 162.14-43.781l8.3438-55.359c-165.56 13.266-327.14 0.5625-483.66-11.766zm295.26-202.03 89.344 9.0469c77.953 13.734 94.688 102.42 85.594 172.36-63.188 4.6406-126.1 5.4375-188.48 4.0312-6.6562-65.156-5.9062-129.61 13.547-185.44zm-385.08-621.71 143.63 3.6562 8.5312-102.05-155.72-24.281zm4.9688 169.69 125.63-9.7969 10.266-122.86-139.87-3.6562zm5.1562 176.81 105.98-13.406 11.672-139.45-121.78 9.5156zm123 177.1-82.266 39.797c9.9844 11.203 22.172 20.766 36.938 28.031 81.656 40.312 164.44 58.641 253.55 65.484 2.5312-13.453 5.7656-26.25 9.6562-38.344-77.484-8.25-168.61-25.125-217.87-94.969zm-101.06 11.766c-22.594-45.188-19.406-102.42-20.953-155.39l102.14-12.938c-3.5625 42.703-11.953 87.375 3.8906 127.22zm-208.18 239.11c38.812-110.16-17.906-208.08-141.94-216.61 3.5156 72.094 0.1875 144.28-17.297 220.74 52.312-4.1719 105.42-5.1562 159.24-4.125zm-144.05-250.13c-3.9375-52.266-10.875-104.81-18.094-159.28-16.781-126.79-34.969-264.19-18.844-431.9l321.24-19.359 15.703 538.55c2.0625 70.266 27.656 136.64 93.188 169.03 85.125 42.047 170.86 61.359 263.58 68.672-3.4688 34.641-2.9531 73.172 1.2188 116.11-160.92-5.6719-321.37-25.312-479.16-30.75 39.891-130.22-35.297-243.32-178.82-251.06z" fill-rule="evenodd"/>
</svg>
