<?xml version="1.0" encoding="UTF-8"?>
<svg fill="#ffffff" width="1200pt" height="1200pt" version="1.1" viewBox="0 0 1200 1200" xmlns="http://www.w3.org/2000/svg">
 <path d="m93.422 950.95c4.4062 9.8438 10.594 18.703 18.094 26.25 15.984 15.938 38.016 25.828 62.25 25.828h530.68c24.234 0 46.266-9.8906 62.25-25.828 7.5-7.5469 13.688-16.406 18.094-26.25h-691.4zm821.76-531.52-57.891-245.72c-1.3125-5.6719-1.9688-11.438-1.9688-17.203 0-21.281 8.9062-44.484 22.5-63.047 14.016-19.125 33.984-34.641 55.641-39.75 5.2969-1.2656 10.688-1.9219 15.984-1.9219h142.78c5.2969 0 10.688 0.70312 15.984 1.9219 21.609 5.1094 41.625 20.578 55.641 39.75 13.594 18.516 22.5 41.719 22.5 63.047 0 5.7188-0.65625 11.531-1.9688 17.203l-57.938 245.72v623.16c0 28.922-11.906 55.359-31.078 74.531-19.031 19.172-45.469 31.031-74.531 31.031s-55.5-11.859-74.625-30.984-30.984-45.516-30.984-74.625v-623.16zm139.22 32.016h-67.219v591.19c0 9.1875 3.7969 17.625 9.8906 23.719s14.531 9.8906 23.719 9.8906 17.625-3.7969 23.719-9.8906c6.1875-6 9.8906-14.438 9.8906-23.719zm-458.9 50.016c-40.031-39.938-95.297-64.688-156.42-64.688s-116.44 24.703-156.37 64.688c-39.984 39.984-64.688 95.25-64.688 156.37 0 61.078 24.703 116.39 64.688 156.42 40.031 39.938 95.297 64.688 156.42 64.688 61.031 0 116.34-24.75 156.32-64.734 40.031-39.938 64.734-95.25 64.734-156.32 0-61.078-24.703-116.39-64.688-156.42zm-156.42-232.69c107.3 0 204.52 43.547 275.06 114.05 70.547 70.641 114.05 167.86 114.05 275.06 0 54.703-11.344 106.83-31.734 154.08l-1.4531 2.9531c-9.9844 22.547-21.984 43.969-35.859 64.031h69.328c19.875 0 36 16.125 36 36 0 43.969-18 83.953-47.062 113.02s-69.047 47.062-113.02 47.062h-530.68c-43.969 0-83.953-18-113.02-47.062s-47.062-69.047-47.062-113.02c0-19.875 16.125-36 36-36h69.328c-14.438-20.906-26.906-43.359-37.125-66.984-20.531-47.25-31.875-99.375-31.875-154.08 0-107.44 43.547-204.74 113.95-275.16 70.406-70.406 167.72-113.95 275.16-113.95z"/>
</svg>
