<?xml version="1.0" encoding="UTF-8"?>
<svg fill="#ffffff" width="1200pt" height="1200pt" version="1.1" viewBox="0 0 1200 1200" xmlns="http://www.w3.org/2000/svg">
 <path d="m750 777.19c7.875-18.75 16.688-37.5 24-56.25 9.4062-22.988 13.695-47.75 12.562-72.562-0.19141-2.2578 0.55469-4.4961 2.0625-6.1875 27.145-33.062 51.418-68.375 72.562-105.56 21-36.562 40.875-73.875 62.438-110.06 15.234-26.512 32.805-51.609 52.5-75 7.125-8.25 14.812-15.938 21.375-24.75 7.1133-8.8516 11.656-19.488 13.125-30.75 1.1484-14.816-2.8203-29.574-11.25-41.812-6.9375-10.68-15.121-20.5-24.375-29.25-27.359-25.559-58.312-46.973-91.875-63.562-37.047-18.754-76.113-33.223-116.44-43.125-45.543-11.875-92.434-17.801-139.5-17.625-8.8125 0-25.312 0-41.812 2.625-35.152 3.5508-69.766 11.227-103.12 22.875-93.719 33.688-179.41 86.492-251.62 155.06-12.141 10.871-22.57 23.516-30.938 37.5-10.293 16.246-12.965 36.18-7.3125 54.562 3.8164 11.551 10.23 22.07 18.75 30.75 10.5 10.688 21.375 21.188 31.875 31.875 36.512 38.656 68.82 81.082 96.375 126.56 15.68 24.832 29.531 50.777 41.438 77.625 8.25 18.75 17.625 37.5 27.188 56.25s17.625 33.75 25.312 51.188c13.055 30.301 21.035 62.547 23.625 95.438 1.6875 20.438 1.6875 40.875 2.0625 61.312-0.12109 26.152 2.582 52.242 8.0625 77.812 5.5469 27.688 18.066 53.504 36.375 75 22.219 25.723 53.832 41.461 87.75 43.688 18.266 1.2812 36.594-1.2734 53.812-7.5 35.215-10.969 62.816-38.5 73.875-73.688 5.3672-17.422 7.9648-35.582 7.6875-53.812v-60.375c-0.023438-20.652 1.543-41.277 4.6875-61.688 3.9062-22.781 10.191-45.09 18.75-66.562zm-75-15.188c-8.5039 22.52-14.781 45.82-18.75 69.562-4.9648 33.887-6.8477 68.148-5.625 102.38 0.75 14.113 0.75 28.262 0 42.375-0.47266 8.125-2.3086 16.113-5.4375 23.625-2.625 6.25-7.2383 11.457-13.125 14.812-15.816 10.395-35.758 12.293-53.25 5.0625-13.699-6.1289-24.602-17.164-30.562-30.938-6.1523-13.742-10.137-28.352-11.812-43.312-2.5312-23.727-3.6602-47.578-3.375-71.438 0-15.938 0-31.875-2.625-47.812-2.3047-21.762-6.5078-43.281-12.562-64.312-1.3125-4.6875-1.5-3.9375 3.1875-4.875 19.77-4.6367 39.91-7.5234 60.188-8.625h16.125c26.098 0.10938 52.07 3.6367 77.25 10.5 1.3125 0 1.5 0.75 0.375 3z"/>
</svg>
